<svg t="1724491151064" class="icon" viewBox="0 0 1224 1024" version="1.1" xmlns="http://www.w3.org/2000/svg" p-id="11257" width="16" height="16"><path d="M1088.41388 163.233377a45.196693 45.196693 0 0 1-61.267846-2.961919L923.314311 68.671365a40.534412 40.534412 0 0 1-8.063002-58.10481 45.196693 45.196693 0 0 1 61.267847 2.943636l103.886572 91.600093a40.534412 40.534412 0 0 1 8.008152 58.123093zM1097.007103 538.098987A484.51147 484.51147 0 1 1 612.495632 52.179691 485.206241 485.206241 0 0 1 1097.007103 538.098987zM612.495632 156.303949a381.776755 381.776755 0 1 0 380.679748 381.795038A381.228252 381.228252 0 0 0 612.495632 156.303949z m156.725748 360.769069L607.741935 652.84593a120.341679 120.341679 0 0 1-24.20729 15.851753 39.62024 39.62024 0 0 1-24.390125 7.916735 33.221032 33.221032 0 0 1-30.917317-7.788751 23.951322 23.951322 0 0 1-5.485035-13.657738l-72.201351-74.285665a37.974729 37.974729 0 0 1 1.407826-54.521253 40.040759 40.040759 0 0 1 55.746244 1.371259l57.538023 59.183533 152.648538-128.29498c29.728892-24.975195 65.326773-32.142308 79.514731-15.979737s1.59066 49.456737-28.174799 74.450215zM197.991499 160.271458a44.75789 44.75789 0 0 1-60.865611 2.961919 40.698964 40.698964 0 0 1 7.953301-58.10481l103.301502-91.600093a44.75789 44.75789 0 0 1 60.865611-2.961919 40.698964 40.698964 0 0 1-7.953301 58.10481z" fill="#333333" p-id="11258"></path></svg>