<svg t="1724491230174" class="icon" viewBox="0 0 1024 1024" version="1.1" xmlns="http://www.w3.org/2000/svg" p-id="13626" width="16" height="16"><path d="M106.666667 565.333333c0-223.573333 181.76-405.333333 405.333333-405.333333s405.333333 181.76 405.333333 405.333333-181.76 405.333333-405.333333 405.333334-405.333333-181.76-405.333333-405.333334z m64 0c0 188.16 153.173333 341.333333 341.333333 341.333334s341.333333-153.173333 341.333333-341.333334-153.173333-341.333333-341.333333-341.333333-341.333333 153.173333-341.333333 341.333333z" fill="#292D32" p-id="13627"></path><path d="M480 554.666667V341.333333c0-17.493333 14.506667-32 32-32s32 14.506667 32 32v213.333334c0 17.493333-14.506667 32-32 32s-32-14.506667-32-32zM384 117.333333c-17.493333 0-32-14.506667-32-32s14.506667-32 32-32h256c17.493333 0 32 14.506667 32 32s-14.506667 32-32 32H384z" fill="#292D32" p-id="13628"></path></svg>